#!OML:ASF X:\für Bonn\!DataBase\2005_08_10_Bjorn_Final\c3d\bjorn.ASF
:FULLY-SPECIFIED
:DEGREES
76
root -2.45371 18.6924 17.2477 -364.855 -190.71 355.214
lowerback 29.2744 -6.53206 0.180717
upperback 21.7527 -1.2669 0.576652
thorax 8.41805 2.09273 1.17177
lowerneck 2.24712 -6.03007 3.30372
upperneck 12.1023 -7.79661 2.99263
head 3.51807 -3.38663 0.246949
rclavicle 1.66979e-014 -6.67916e-014
rhumerus -192.81 -160.393 102.816
rradius 35.7693
rwrist 10.9508
rhand -11.5967 12.2835
rfingers 7.12502
rthumb 14.4456 -17.1937
lclavicle 1.66979e-014 -6.67916e-014
lhumerus -370.885 -12.3449 -279.995
lradius 46.4793
lwrist -2.95674
lhand -23.2471 -7.45536
lfingers 7.12502
lthumb 3.20449 22.5003
rfemur -18.4801 -4.35852 2.65017
rtibia 37.5205
rfoot -12.7522 10.3292
rtoes -2.71732
lfemur -14.9571 11.8146 -20.4544
ltibia 37.637
lfoot -12.9691 5.92297
ltoes -11.5678
77
root -2.48427 18.6471 17.2882 -364.773 -190.931 354.919
lowerback 29.796 -6.80746 0.360562
upperback 21.9799 -1.40212 0.658038
thorax 8.46557 2.09384 1.20598
lowerneck 2.39738 -5.96 3.22571
upperneck 11.7268 -7.69927 2.93077
head 3.35846 -3.36644 0.251503
rclavicle 3.02153e-014 -2.78299e-014
rhumerus -191.938 -160.712 103.104
rradius 35.4604
rwrist 10.8181
rhand -11.6969 12.4001
rfingers 7.12502
rthumb 14.3491 -17.084
lclavicle 3.02153e-014 -2.78299e-014
lhumerus -370.441 -12.2772 -280.017
lradius 47.0521
lwrist -3.06357
lhand -22.9328 -7.7598
lfingers 7.12502
lthumb 3.50796 22.1911
rfemur -18.9525 -4.42015 2.2799
rtibia 37.7386
rfoot -12.5948 10.1059
rtoes -3.82468
lfemur -15.7628 11.9399 -20.8935
ltibia 38.5855
lfoot -13.2966 6.02906
ltoes -11.8395
78
root -2.51548 18.601 17.3286 -364.678 -191.218 354.618
lowerback 30.309 -7.06257 0.534134
upperback 22.2178 -1.5065 0.740094
thorax 8.53219 2.10985 1.24033
lowerneck 2.5346 -5.9594 3.2317
upperneck 11.3344 -7.68211 2.67432
head 3.18391 -3.38993 0.178365
rclavicle 2.06736e-014 -2.8625e-014
rhumerus -190.952 -161.017 103.418
rradius 35.0502
rwrist 10.7194
rhand -11.8178 12.5443
rfingers 7.12502
rthumb 14.2326 -16.948
lclavicle 2.06736e-014 -2.8625e-014
lhumerus -369.963 -12.2068 -280.069
lradius 47.6223
lwrist -3.27989
lhand -22.7724 -8.07815
lfingers 7.12502
lthumb 3.66289 21.8701
rfemur -19.518 -4.43812 1.90678
rtibia 38.024
rfoot -12.4568 9.94233
rtoes -5.33313
lfemur -16.578 12.079 -21.3371
ltibia 39.5215
lfoot -13.6434 6.13727
ltoes -11.7533
79
root -2.54661 18.5561 17.3692 -364.542 -191.527 354.297
lowerback 30.7746 -7.31271 0.686183
upperback 22.4637 -1.61037 0.8154
thorax 8.63106 2.12211 1.28055
lowerneck 2.62037 -5.98123 3.26556
upperneck 10.9785 -7.69242 2.32837
head 3.02744 -3.42601 0.0705334
rclavicle -1.27222e-014 -5.00937e-014
rhumerus -189.869 -161.321 103.724
rradius 34.5989
rwrist 10.5967
rhand -11.8932 12.5748
rfingers 7.12502
rthumb 14.1599 -16.9227
lclavicle -1.27222e-014 -5.00937e-014
lhumerus -369.45 -12.1128 -280.146
lradius 48.1867
lwrist -3.41518
lhand -22.5786 -8.4494
lfingers 7.12502
lthumb 3.85005 21.4956
rfemur -20.2068 -4.45043 1.52345
rtibia 38.3896
rfoot -12.3642 9.83761
rtoes -7.36943
lfemur -17.4473 12.1962 -21.8197
ltibia 40.4382
lfoot -13.949 6.33502
ltoes -11.938
80
root -2.57812 18.5117 17.4105 -364.351 -191.878 353.989
lowerback 31.2093 -7.54569 0.909511
upperback 22.7016 -1.67954 0.863577
thorax 8.73012 2.16003 1.24766
lowerneck 2.59265 -6.03774 3.3884
upperneck 10.678 -7.75729 1.97993
head 2.90784 -3.4821 -0.0569141
rclavicle 5.08889e-014 9.78021e-014
rhumerus -188.79 -161.552 104.007
rradius 34.1401
rwrist 10.4581
rhand -11.9761 12.5919
rfingers 7.12502
rthumb 14.0801 -16.9111
lclavicle 5.08889e-014 9.78021e-014
lhumerus -368.901 -12.0935 -280.245
lradius 48.7409
lwrist -3.606
lhand -22.4869 -8.78064
lfingers 7.12502
lthumb 3.9386 21.1627
rfemur -21.0336 -4.47593 1.16603
rtibia 38.8457
rfoot -12.3337 9.78072
rtoes -9.60189
lfemur -18.3627 12.3097 -22.2958
ltibia 41.3332
lfoot -14.2835 6.53213
ltoes -11.8583
81
root -2.61 18.4685 17.4511 -364.149 -192.238 353.643
lowerback 31.6316 -7.78577 1.08483
upperback 22.9498 -1.76457 0.88827
thorax 8.85069 2.18627 1.22005
lowerneck 2.482 -6.08134 3.45221
upperneck 10.3935 -7.81853 1.70509
head 2.81514 -3.53547 -0.153734
rclavicle 3.18055e-014 -1.51076e-014
rhumerus -187.707 -161.891 104.28
rradius 33.7423
rwrist 10.2338
rhand -12.0459 12.5456
rfingers 7.12502
rthumb 14.0128 -16.9621
lclavicle 3.18055e-014 -1.51076e-014
lhumerus -368.31 -11.9768 -280.371
lradius 49.2348
lwrist -3.8482
lhand -22.4892 -9.19843
lfingers 7.12502
lthumb 3.93639 20.745
rfemur -21.9454 -4.49619 0.768977
rtibia 39.3869
rfoot -12.3416 9.74703
rtoes -11.7891
lfemur -19.2973 12.4217 -22.8257
ltibia 42.2125
lfoot -14.613 6.74099
ltoes -11.8858
82
root -2.64073 18.4247 17.4922 -363.927 -192.609 353.334
lowerback 32.0947 -8.01675 1.29442
upperback 23.1618 -1.83733 0.924926
thorax 8.9141 2.21717 1.18305
lowerneck 2.32688 -6.14806 3.54976
upperneck 10.1793 -7.90872 1.39615
head 2.75141 -3.59905 -0.269404
rclavicle 1.90833e-014 3.18055e-015
rhumerus -186.776 -162.222 104.608
rradius 33.4545
rwrist 9.99583
rhand -12.0463 12.4923
rfingers 7.12502
rthumb 14.0124 -17.0154
lclavicle 1.90833e-014 3.18055e-015
lhumerus -367.774 -11.8617 -280.482
lradius 49.7279
lwrist -4.24362
lhand -22.4685 -9.56317
lfingers 7.12502
lthumb 3.9564 20.3798
rfemur -22.9235 -4.47314 0.422183
rtibia 40.0077
rfoot -12.3498 9.74231
rtoes -13.4582
lfemur -20.2577 12.504 -23.3134
ltibia 43.0889
lfoot -14.9172 6.98333
ltoes -11.8603
83
root -2.67127 18.3793 17.5325 -363.671 -192.973 353.024
lowerback 32.5551 -8.23339 1.56017
upperback 23.3179 -1.90072 0.943651
thorax 8.91147 2.25208 1.09218
lowerneck 2.14741 -6.2665 3.73453
upperneck 10.0617 -8.06462 1.07488
head 2.71989 -3.68746 -0.406338
rclavicle 3.18055e-015 4.92986e-014
rhumerus -186.02 -162.571 104.972
rradius 33.2291
rwrist 9.65814
rhand -12.088 12.4141
rfingers 7.12502
rthumb 13.9722 -17.0964
lclavicle 3.18055e-015 4.92986e-014
lhumerus -367.305 -11.8461 -280.638
lradius 50.1934
lwrist -4.69918
lhand -22.518 -9.84407
lfingers 7.12502
lthumb 3.90854 20.0998
rfemur -23.9771 -4.44102 0.0747046
rtibia 40.6938
rfoot -12.4224 9.73765
rtoes -14.8395
lfemur -21.2658 12.5432 -23.8102
ltibia 43.9778
lfoot -15.2335 7.25799
ltoes -12.0045
84
root -2.70069 18.3309 17.5739 -363.407 -193.319 352.715
lowerback 33.0463 -8.44373 1.8078
upperback 23.4312 -1.97295 0.994725
thorax 8.8523 2.27051 1.04516
lowerneck 2.00545 -6.39752 3.85131
upperneck 9.98867 -8.23264 0.770344
head 2.69958 -3.78114 -0.526556
rclavicle -2.54444e-014 -6.91771e-014
rhumerus -185.359 -162.937 105.403
rradius 33.0686
rwrist 9.3273
rhand -12.0744 12.3101
rfingers 7.12502
rthumb 13.9853 -17.1994
lclavicle -2.54444e-014 -6.91771e-014
lhumerus -366.909 -11.8156 -280.743
lradius 50.624
lwrist -5.18824
lhand -22.5969 -10.1462
lfingers 7.12502
lthumb 3.83234 19.7991
rfemur -25.0889 -4.43559 -0.25924
rtibia 41.442
rfoot -12.4869 9.74868
rtoes -15.6892
lfemur -22.3052 12.5554 -24.3022
ltibia 44.8849
lfoot -15.5451 7.52354
ltoes -11.9266
85
root -2.72903 18.2812 17.6161 -363.097 -193.681 352.422
lowerback 33.5252 -8.62699 2.0733
upperback 23.502 -2.02691 1.05833
thorax 8.74995 2.28982 0.995605
lowerneck 1.93354 -6.54098 3.96967
upperneck 9.8929 -8.41522 0.517165
head 2.66062 -3.88055 -0.627621
rclavicle 9.22361e-014 7.4743e-014
rhumerus -184.727 -163.299 105.868
rradius 32.8875
rwrist 8.93724
rhand -12.082 12.1644
rfingers 7.12502
rthumb 13.9779 -17.3457
lclavicle 9.22361e-014 7.4743e-014
lhumerus -366.536 -11.8085 -280.831
lradius 51.0182
lwrist -5.68355
lhand -22.6869 -10.3471
lfingers 7.12502
lthumb 3.74548 19.5998
rfemur -26.2913 -4.37704 -0.575288
rtibia 42.2508
rfoot -12.5503 9.77365
rtoes -16.0654
lfemur -23.4156 12.5471 -24.7808
ltibia 45.8227
lfoot -15.8678 7.80572
ltoes -11.8433
86
root -2.75783 18.2289 17.6556 -362.818 -194.04 352.126
lowerback 33.9714 -8.82277 2.30758
upperback 23.6057 -2.09097 1.12706
thorax 8.70303 2.30381 0.973584
lowerneck 1.90816 -6.67369 4.06772
upperneck 9.7201 -8.58343 0.276777
head 2.58864 -3.97592 -0.71704
rclavicle -6.36111e-015 -3.97569e-015
rhumerus -184.004 -163.61 106.334
rradius 32.6809
rwrist 8.64705
rhand -12.0918 11.9721
rfingers 7.12502
rthumb 13.9686 -17.5386
lclavicle -6.36111e-015 -3.97569e-015
lhumerus -366.117 -11.8005 -280.921
lradius 51.3586
lwrist -6.132
lhand -22.7866 -10.463
lfingers 7.12502
lthumb 3.64923 19.4855
rfemur -27.4954 -4.3346 -0.906508
rtibia 43.1211
rfoot -12.6239 9.88265
rtoes -16.1958
lfemur -24.4994 12.5338 -25.2644
ltibia 46.7836
lfoot -16.1997 8.10125
ltoes -11.9205
87
root -2.78484 18.1727 17.6951 -362.515 -194.383 351.848
lowerback 34.383 -9.02535 2.50102
upperback 23.7237 -2.17209 1.22199
thorax 8.69084 2.30131 1.00641
lowerneck 1.93807 -6.77347 4.04716
upperneck 9.45528 -8.71613 0.162346
head 2.4876 -4.05751 -0.742511
rclavicle 1.20861e-013 1.29608e-013
rhumerus -183.18 -163.991 106.827
rradius 32.4243
rwrist 8.37721
rhand -12.1253 11.8011
rfingers 7.12502
rthumb 13.9363 -17.7118
lclavicle 1.20861e-013 1.29608e-013
lhumerus -365.701 -11.7346 -281.009
lradius 51.7159
lwrist -6.49386
lhand -22.8801 -10.5424
lfingers 7.12502
lthumb 3.55888 19.4076
rfemur -28.7479 -4.32227 -1.2084
rtibia 44.0463
rfoot -12.7309 10.0036
rtoes -16.1044
lfemur -25.6296 12.4667 -25.7182
ltibia 47.7847
lfoot -16.5824 8.39635
ltoes -11.8775
88
root -2.81098 18.1139 17.7348 -362.188 -194.729 351.569
lowerback 34.7301 -9.1918 2.62298
upperback 23.8458 -2.23696 1.38157
thorax 8.71503 2.28795 1.1417
lowerneck 2.01754 -6.8772 3.94695
upperneck 9.16114 -8.85092 0.0582444
head 2.37231 -4.14236 -0.748648
rclavicle -7.15625e-014 -9.54166e-014
rhumerus -182.326 -164.314 107.402
rradius 32.1406
rwrist 8.07341
rhand -12.1002 11.6817
rfingers 7.12502
rthumb 13.9605 -17.8296
lclavicle -7.15625e-014 -9.54166e-014
lhumerus -365.239 -11.6794 -281.034
lradius 51.9735
lwrist -6.76837
lhand -23.0264 -10.6049
lfingers 7.12502
lthumb 3.41757 19.3475
rfemur -30.0682 -4.30338 -1.51827
rtibia 45.0236
rfoot -12.8095 10.1718
rtoes -15.8651
lfemur -26.8096 12.3789 -26.1802
ltibia 48.812
lfoot -16.9245 8.71904
ltoes -11.8264
89
root -2.83683 18.0506 17.7742 -361.872 -195.054 351.312
lowerback 35.0962 -9.35017 2.74408
upperback 23.9318 -2.30261 1.57472
thorax 8.69357 2.26535 1.31163
lowerneck 2.23513 -6.98139 3.81166
upperneck 8.79667 -8.97819 -0.0326571
head 2.21253 -4.22448 -0.736689
rclavicle 4.29375e-014 5.88403e-014
rhumerus -181.524 -164.598 108.03
rradius 31.8505
rwrist 7.88811
rhand -12.1272 11.5451
rfingers 7.12502
rthumb 13.9344 -17.968
lclavicle 4.29375e-014 5.88403e-014
lhumerus -364.804 -11.5777 -280.983
lradius 52.1414
lwrist -7.11067
lhand -23.1602 -10.6674
lfingers 7.12502
lthumb 3.2884 19.287
rfemur -31.3904 -4.28744 -1.81036
rtibia 46.0471
rfoot -12.941 10.3554
rtoes -15.6336
lfemur -27.9917 12.2252 -26.6078
ltibia 49.8806
lfoot -17.3113 9.08754
ltoes -11.885
90
root -2.86124 17.9852 17.8135 -361.569 -195.353 351.094
lowerback 35.497 -9.51621 2.87572
upperback 23.9881 -2.3782 1.78895
thorax 8.628 2.23366 1.50006
lowerneck 2.50161 -7.0663 3.6252
upperneck 8.42835 -9.08133 -0.0614953
head 2.0501 -4.29322 -0.694758
rclavicle -2.06736e-014 -9.54166e-015
rhumerus -180.693 -164.82 108.674
rradius 31.4993
rwrist 7.75065
rhand -12.0886 11.3914
rfingers 7.12502
rthumb 13.9717 -18.1191
lclavicle -2.06736e-014 -9.54166e-015
lhumerus -364.406 -11.4742 -280.906
lradius 52.214
lwrist -7.49674
lhand -23.3878 -10.6821
lfingers 7.12502
lthumb 3.06861 19.2755
rfemur -32.6982 -4.30687 -2.05384
rtibia 47.1074
rfoot -13.0545 10.5502
rtoes -15.5208
lfemur -29.165 12.0297 -26.9784
ltibia 50.9713
lfoot -17.6876 9.44215
ltoes -11.8975
